<?xml version="1.0" standalone="no"?>
<!DOCTYPE svg PUBLIC "-//W3C//DTD SVG 20010904//EN"
 "http://www.w3.org/TR/2001/REC-SVG-20010904/DTD/svg10.dtd">
<svg version="1.0" xmlns="http://www.w3.org/2000/svg"
 width="58px" height="58px" viewBox="0 0 900.000000 900.000000"
 preserveAspectRatio="xMidYMid meet">
<metadata>
Created by potrace 1.10, written by Peter Selinger 2001-2011
</metadata>
<g transform="translate(0.000000,900.000000) scale(0.100000,-0.100000)"
fill="#63d810" stroke="none">
<path d="M5565 7404 c-27 -7 -79 -17 -115 -23 -248 -43 -481 -135 -715 -284
-44 -28 -86 -57 -93 -64 -8 -7 -23 -18 -35 -25 -63 -33 -289 -261 -383 -385
-46 -62 -84 -114 -84 -117 0 -2 -16 -28 -35 -58 -43 -64 -126 -232 -155 -314
-12 -32 -28 -72 -35 -89 -7 -16 -20 -64 -30 -105 -9 -41 -21 -82 -26 -92 -37
-74 -56 -508 -30 -713 7 -55 14 -113 16 -128 2 -16 8 -34 13 -40 5 -7 12 -25
15 -42 24 -129 69 -254 157 -435 39 -80 53 -105 72 -127 20 -24 29 -50 21 -68
-3 -9 -44 -42 -92 -73 -47 -31 -90 -60 -96 -64 -31 -24 -142 -102 -223 -159
-52 -35 -115 -79 -140 -96 -26 -18 -55 -38 -66 -45 -10 -7 -35 -25 -55 -39
-125 -89 -171 -119 -180 -119 -5 0 -14 -6 -18 -12 -8 -12 -25 -25 -163 -119
-30 -21 -100 -70 -155 -109 -55 -39 -143 -100 -195 -135 -52 -36 -107 -75
-122 -87 -38 -30 -59 -17 -107 62 -21 36 -46 66 -55 68 -14 3 -177 -99 -292
-183 -23 -16 -51 -37 -64 -45 -12 -8 -48 -33 -79 -55 -32 -22 -64 -44 -73 -50
-9 -5 -75 -50 -147 -100 -73 -49 -166 -113 -209 -142 -42 -28 -86 -59 -97 -68
-22 -17 -161 -113 -265 -182 -36 -23 -92 -62 -125 -86 -33 -24 -78 -54 -100
-67 -22 -13 -51 -35 -65 -47 -14 -13 -28 -23 -32 -23 -4 0 -35 -20 -70 -44
-113 -80 -231 -161 -348 -241 -147 -100 -221 -158 -247 -193 -29 -39 -63 -108
-63 -128 0 -9 27 -67 60 -130 33 -62 60 -118 60 -124 0 -6 10 -24 22 -40 26
-35 103 -55 175 -44 39 5 152 61 173 85 3 3 32 22 65 42 33 21 69 43 80 50 28
18 97 60 117 72 46 28 269 167 346 216 48 30 102 64 119 75 50 29 371 227 397
244 13 8 57 35 99 60 93 55 132 79 172 105 16 11 52 34 79 50 27 17 63 39 80
50 17 11 97 61 179 110 81 50 193 118 250 153 56 35 109 66 117 69 24 10 50
35 50 50 0 7 -27 53 -60 101 -33 48 -61 99 -62 112 -3 20 12 34 87 87 50 35
101 68 114 73 13 6 38 21 55 33 17 12 38 27 47 32 9 6 29 19 45 29 69 46 133
86 138 86 2 0 34 20 70 45 37 25 68 45 71 45 3 0 34 20 71 45 36 25 67 45 69
45 3 0 24 13 47 29 24 16 76 50 116 75 39 25 105 67 145 92 39 26 88 56 107
69 19 12 61 38 92 58 31 21 60 37 65 37 4 1 24 14 43 30 19 17 38 30 41 30 4
0 45 25 90 55 96 64 92 65 189 -35 102 -103 249 -222 355 -285 28 -17 59 -36
70 -43 145 -89 442 -199 630 -234 93 -17 130 -20 337 -25 241 -5 384 10 548
57 41 12 89 25 105 30 17 4 55 18 85 30 30 12 66 25 80 30 41 14 205 97 275
140 36 22 70 40 75 40 6 0 10 3 10 8 0 4 39 36 88 72 180 134 386 366 505 570
30 52 65 110 76 128 12 18 21 39 21 45 0 7 7 26 16 42 9 17 24 55 35 85 10 30
26 75 35 100 24 66 64 226 64 258 0 16 4 32 9 38 13 12 29 282 25 399 -3 81
-6 115 -20 220 -15 113 -43 242 -72 325 -10 30 -29 84 -41 120 -12 36 -43 106
-68 155 -133 267 -307 489 -518 662 -49 41 -100 83 -111 94 -12 10 -25 19 -29
19 -4 0 -40 21 -79 47 -98 65 -266 151 -351 178 -38 13 -81 28 -95 33 -58 22
-131 41 -220 57 -52 9 -120 23 -150 30 -72 18 -453 17 -525 -1z m365 -519 c36
-3 89 -7 119 -10 124 -10 298 -63 456 -141 149 -74 162 -81 269 -166 61 -48
161 -146 215 -209 65 -77 151 -194 151 -206 0 -4 14 -28 30 -52 17 -24 30 -52
30 -61 0 -10 7 -23 16 -30 17 -15 15 -65 -3 -65 -6 0 -25 18 -43 40 -61 78
-206 218 -297 286 -51 38 -95 69 -97 69 -3 0 -35 18 -70 39 -59 37 -147 81
-161 81 -3 0 -28 11 -55 24 -27 13 -76 32 -107 41 -32 9 -78 23 -103 32 -25 8
-72 19 -105 24 -33 5 -73 13 -90 18 -66 20 -330 30 -433 16 -77 -11 -244 -46
-261 -56 -9 -5 -45 -18 -81 -30 -140 -45 -366 -170 -451 -250 -19 -19 -51 -48
-70 -64 -19 -17 -62 -62 -94 -100 -32 -39 -67 -79 -78 -90 -10 -11 -23 -29
-28 -40 -5 -11 -18 -33 -29 -50 -38 -56 -140 -270 -146 -305 -4 -19 -11 -40
-16 -47 -5 -7 -19 -31 -31 -55 -25 -48 -53 -58 -50 -18 2 27 14 105 33 209 6
36 17 76 24 90 8 14 26 60 41 101 94 254 278 502 487 656 35 25 65 49 68 53
14 21 240 143 298 162 20 6 42 15 47 19 6 4 19 9 30 12 11 3 56 16 100 28 89
24 331 58 385 54 19 -2 64 -6 100 -9z m90 -515 c345 -86 620 -322 752 -645 48
-116 59 -155 70 -240 25 -193 0 -470 -48 -540 -8 -11 -14 -25 -14 -33 0 -14
-21 -59 -64 -137 -91 -163 -289 -350 -462 -438 -27 -13 -98 -42 -159 -63
l-110 -39 -220 0 -220 0 -90 34 c-113 42 -156 59 -175 71 -8 5 -37 21 -65 36
-141 74 -321 262 -403 419 -18 33 -32 66 -32 74 0 8 -6 22 -14 30 -16 18 -59
151 -51 159 3 3 -3 17 -12 31 -25 38 -26 400 -2 452 9 19 24 65 33 103 9 39
22 77 30 85 7 9 23 41 35 71 65 155 278 375 454 468 125 67 250 106 387 122
96 12 294 1 380 -20z m1326 -1145 c10 -40 -12 -171 -49 -286 -21 -69 -69 -192
-80 -206 -5 -7 -24 -44 -43 -84 -19 -39 -67 -115 -106 -168 -80 -106 -269
-301 -293 -301 -8 0 -15 -4 -15 -9 0 -10 -108 -89 -153 -112 -51 -26 -182 -91
-211 -105 -16 -8 -36 -14 -44 -14 -7 0 -28 -6 -45 -14 -194 -85 -627 -96 -882
-22 -72 21 -198 67 -212 78 -7 5 -44 25 -83 43 -300 145 -592 477 -729 832
-23 59 4 108 33 59 6 -11 19 -28 29 -38 9 -10 17 -21 17 -25 1 -17 176 -212
226 -251 22 -18 57 -48 77 -67 20 -19 39 -35 42 -35 4 0 21 -10 38 -22 81 -58
267 -153 377 -193 96 -34 163 -55 179 -55 9 0 23 -6 29 -12 24 -24 413 -64
522 -54 93 9 239 36 277 52 18 7 60 20 95 29 65 17 81 24 208 83 163 76 344
218 462 362 79 96 218 321 218 352 0 6 15 43 34 82 19 39 37 83 40 99 8 34 34
35 42 2z"/>
<path d="M5665 5664 c-87 -21 -158 -45 -175 -59 -8 -7 -25 -16 -37 -19 -29 -9
-165 -141 -192 -187 -11 -20 -33 -71 -48 -115 -38 -111 -38 -253 0 -367 15
-43 36 -91 47 -107 11 -15 20 -31 20 -35 0 -15 115 -126 149 -143 20 -10 49
-26 64 -36 80 -54 282 -72 409 -37 143 39 279 151 345 282 45 93 54 124 60
221 7 102 -20 227 -69 318 -31 60 -161 193 -200 205 -12 5 -27 13 -33 19 -12
14 -92 40 -188 61 -79 17 -74 17 -152 -1z"/>
</g>
</svg>
